<svg id="コンポーネント_5_2" data-name="コンポーネント 5 – 2" xmlns="http://www.w3.org/2000/svg" width="15.03" height="10.17" viewBox="0 0 15.03 10.17">
  <g id="グループ_27" data-name="グループ 27">
    <path id="パス_65" data-name="パス 65" d="M649.663,362.186a.674.674,0,0,0-.953,0l-.47.471a7.97,7.97,0,0,0-3.351-.781,8.707,8.707,0,0,0-5.185,1.843c-1.357,1.041-2.234,2.314-2.234,3.242,0,.988,1.112,2.516,2.826,3.641l-.181.181a.674.674,0,1,0,.953.953l8.595-8.6A.673.673,0,0,0,649.663,362.186ZM647.3,363.6l-2.41,2.41V363.12A6.54,6.54,0,0,1,647.3,363.6Zm-8.584,3.363c0-.7,1.6-2.635,3.984-3.458a3.523,3.523,0,0,0-.358,5.054l-1.15,1.15C639.665,368.773,638.714,367.5,638.714,366.96Z" transform="translate(-637.469 -361.875)" fill="#444"/>
    <path id="パス_66" data-name="パス 66" d="M659.274,378.231a3.477,3.477,0,0,0,3.451-3.5h-.059l-3.5,3.5C659.2,378.227,659.238,378.231,659.274,378.231Z" transform="translate(-651.854 -370.396)" fill="#444"/>
    <path id="パス_67" data-name="パス 67" d="M660.81,368.366l-.884.884a4.08,4.08,0,0,1,1.522,2.013,4.51,4.51,0,0,1-1.753,2.189,7.39,7.39,0,0,1-4.422,1.651,6.484,6.484,0,0,1-1.1-.1l-1.035,1.035,0,0a7.779,7.779,0,0,0,2.139.308,8.636,8.636,0,0,0,5.191-1.918c1.54-1.21,2.229-2.463,2.229-3.168A4.716,4.716,0,0,0,660.81,368.366Z" transform="translate(-647.855 -366.178)" fill="#444"/>
  </g>
</svg>
