<svg id="コンポーネント_5_2" data-name="コンポーネント 5 – 2" xmlns="http://www.w3.org/2000/svg" width="15.027" height="10.173" viewBox="0 0 15.027 10.173">
  <path id="パス_28" data-name="パス 28" d="M246.409,70.343c-4.112,0-7.514-3.368-7.514-5.087,0-.929.888-2.2,2.263-3.243a8.879,8.879,0,0,1,5.251-1.843c4.035,0,7.513,3.412,7.513,5.086,0,.7-.7,1.958-2.257,3.169A8.811,8.811,0,0,1,246.409,70.343Zm0-8.928c-3.588,0-6.253,2.941-6.253,3.841s2.665,3.841,6.253,3.841a7.534,7.534,0,0,0,4.477-1.652,4.518,4.518,0,0,0,1.775-2.189,4.374,4.374,0,0,0-1.774-2.205A7.55,7.55,0,0,0,246.409,61.415Z" transform="translate(-238.895 -60.17)" fill="#444"/>
  <path id="パス_29" data-name="パス 29" d="M254.165,62.633a3.5,3.5,0,1,0,3.494,3.5h-3.494Z" transform="translate(-246.652 -61.803)" fill="#444"/>
</svg>
