<svg id="コンポーネント_9_1" data-name="コンポーネント 9 – 1" xmlns="http://www.w3.org/2000/svg" width="8.226" height="14" viewBox="0 0 8.226 14">
  <path id="パス_45" data-name="パス 45" d="M1341.734,969.644l-.048-.522a4.126,4.126,0,0,1,1.176-3.2c.687-.791,1.243-1.456,1.209-2.139-.035-.7-.577-1.146-1.71-1.143a4.63,4.63,0,0,0-2.206.691l-.876-2.16a8.482,8.482,0,0,1,3.733-.968c2.982-.116,4.408,1.3,4.49,2.965a4.773,4.773,0,0,1-1.754,3.447,3.242,3.242,0,0,0-1.03,2.556l.018.36-3,.118Zm-.452,2.795a1.834,1.834,0,0,1,1.921-1.9,1.887,1.887,0,0,1,2.124,1.748,1.841,1.841,0,0,1-1.944,1.909A1.881,1.881,0,0,1,1341.283,972.438Z" transform="translate(-1339.279 -960.192)" fill="#00bebe"/>
</svg>
