<svg id="dd" xmlns="http://www.w3.org/2000/svg" width="8.815" height="14.702" viewBox="0 0 8.815 14.702">
  <defs>
    <style>
      .cls-1 {
        fill: #00bebe;
      }
    </style>
  </defs>
  <path id="パス_30" data-name="パス 30" class="cls-1" d="M155.609,255.7a4.425,4.425,0,0,0-4.407,4.443,6.048,6.048,0,0,0,.294,1.536c.053.161.156.416.227.569l3.755,8.039c.074.154.19.154.261,0l3.756-8.039c.071-.154.171-.409.225-.569a6.023,6.023,0,0,0,.3-1.536A4.425,4.425,0,0,0,155.609,255.7Zm0,6.366a1.923,1.923,0,1,1,1.907-1.924A1.916,1.916,0,0,1,155.609,262.068Z" transform="translate(-151.202 -255.702)"/>
</svg>
