<svg id="グループ_28" data-name="グループ 28" xmlns="http://www.w3.org/2000/svg" width="12.577" height="17.67" viewBox="0 0 12.577 17.67">
  <path id="パス_32" data-name="パス 32" d="M1939.693,860.283c-1.487.244-1.125-2.24-3.368-1.859-.828.14-1.275.787-1.635,1.859-.385-.085-.488.134-.817.109C1933.652,856.4,1939.776,856.488,1939.693,860.283Z" transform="translate(-1930.391 -857.419)" fill="#00bebe"/>
  <path id="パス_33" data-name="パス 33" d="M1939.091,864.85c-.027.663.11,1.5-.2,1.861-3.813.184-8.337.184-12.149,0-.36-.308-.149-1.226-.2-1.861A31.634,31.634,0,0,1,1939.091,864.85Z" transform="translate(-1926.521 -861.113)" fill="#00bebe"/>
  <path id="パス_34" data-name="パス 34" d="M1939.319,870.956c-.334,3.688,0,8.092-.816,11.264a47.263,47.263,0,0,1-8.781-.109,75.682,75.682,0,0,1-.613-11.264C1932.48,870.919,1936.119,870.7,1939.319,870.956Zm-7.453,1.968v3.938c0,1.277-.248,2.888.306,3.611.238-2.408.035-5.287.1-7.877h-.307C1931.963,872.738,1931.837,872.749,1931.866,872.924Zm1.328,0v3.938c0,1.277-.247,2.888.306,3.611a40.355,40.355,0,0,0,.1-7.877h-.306C1933.291,872.738,1933.166,872.749,1933.194,872.924Zm1.326,0v3.938c0,1.335-.245,2.742.305,3.611a40.373,40.373,0,0,0,.1-7.877h-.306C1934.617,872.738,1934.492,872.749,1934.52,872.924Zm1.532,7.549c.543-.26.3-1.133.305-1.752a32.326,32.326,0,0,0-.2-6.124h-.2C1936.018,875.187,1935.817,878.065,1936.053,880.473Z" transform="translate(-1927.873 -864.701)" fill="#00bebe"/>
</svg>
